<svg xmlns="http://www.w3.org/2000/svg" width="800" height="800" viewBox="0 0 349.75 349.749" xml:space="preserve"><path d="M174.881 0C78.441 0 0 78.441 0 174.875s78.441 174.874 174.887 174.874c96.422 0 174.863-78.44 174.863-174.874S271.309 0 174.881 0zM127.08 141.626l.352-.384c1.426-1.036 2.12-2.657 1.861-4.354-3.522-21.191-1.21-30.027-.43-32.246 6.155-18.891 25.476-27.628 29.268-29.177.808-.318 2.3-.769 3.813-1.003l.451-.105 3.104-.165.024.192.72-.069c.64-.069 1.252-.153 2.021-.315l.685-.146c.606.009 8.127.96 19.302 4.386l7.765 2.672c14.201 4.194 20.734 11.997 21.947 13.57 11.373 12.884 8.322 32.339 5.506 42.784-.318 1.231-.126 2.498.57 3.549l.643.793c.823 1.12 1.562 5.438-.906 14.609-.469 2.786-1.501 5.05-3.026 6.575a4.451 4.451 0 0 0-1.104 2.3c-3.844 22.533-24.031 47.741-45.315 47.741-18.06 0-38.671-23.19-42.379-47.723a4.524 4.524 0 0 0-1.156-2.417c-1.543-1.601-2.528-3.906-3.122-7.317-1.813-6.418-1.99-11.591-.594-13.75zm-40.541 97.72c.783-.991 5.149-6.107 13.979-9.476 7.764-2.385 26.956-8.762 37.446-16.363.492-.265.976-.781 1.378-1.189.97-1.045 2.453-2.642 4.209-4.27l.979-.93.997.937c9.242 8.713 19.467 13.486 28.796 13.486 9.8 0 19.903-4.239 29.241-12.273l.732-.625 1.981.961c1.771 1.621 4.834 3.849 6.257 4.527l1.825.89-.191.197.811.492c1.723 1.039 3.597 2.048 5.795 3.135 2.222.979 4.083 1.699 6.004 2.336 1.622.528 10.257 3.423 20.08 7.963l1.874.564c9.607 3.681 13.871 8.791 14.291 9.325 11.403 16.897 15.774 48.429 17.402 65.999-29.784 24.181-67.242 37.493-105.531 37.493-38.308 0-75.771-13.312-105.541-37.506 1.594-17.521 5.929-48.951 17.186-65.673z" fill="white"/></svg>